<svg width="246" height="290" viewBox="0 0 246 290" fill="none" xmlns="http://www.w3.org/2000/svg">
<g filter="url(#filter0_d_439_2592)">
<rect x="36.2344" width="205.042" height="254.583" rx="14.0732" transform="rotate(8.18231 36.2344 0)" fill="#090D0B" shape-rendering="crispEdges"/>
<rect x="36.8182" y="0.779875" width="203.665" height="253.205" rx="13.3844" transform="rotate(8.18231 36.8182 0.779875)" stroke="#1B1B1B" stroke-width="1.3777" shape-rendering="crispEdges"/>
<path d="M97.1126 128.256C96.9198 129.597 96.9084 130.705 97.0475 131.539C97.2228 132.378 97.4601 133.3 97.832 134.315C97.9716 134.631 98.0024 134.931 97.9659 135.185C97.9138 135.547 97.6442 135.879 97.1209 136.173L94.6188 137.367C94.2614 137.538 93.9196 137.6 93.6296 137.558C93.2672 137.506 92.9309 137.272 92.6153 136.894C92.1861 136.278 91.8346 135.635 91.5555 135.003C91.2817 134.335 91.0183 133.594 90.7395 132.703C87.4332 135.631 83.6418 136.788 79.3652 136.173C76.3209 135.735 74.0177 134.516 72.492 132.521C70.9663 130.526 70.3937 128.076 70.8106 125.177C71.2536 122.096 72.7004 119.752 75.1821 118.185C77.6639 116.619 80.735 116.098 84.4679 116.635C85.7001 116.812 86.953 117.103 88.2679 117.477C89.5828 117.851 90.9183 118.339 92.3211 118.874L92.7015 116.228C93.0975 113.474 92.7938 111.47 91.8319 110.185C90.8337 108.894 88.9548 108.069 86.1641 107.668C84.8957 107.486 83.5701 107.443 82.1823 107.577C80.7944 107.71 79.4324 107.921 78.0909 108.246C77.4746 108.416 77.0188 108.499 76.7547 108.535C76.4906 108.571 76.3042 108.581 76.1592 108.56C75.6518 108.487 75.4502 108.088 75.5597 107.327L75.815 105.551C75.8984 104.971 76.0334 104.547 76.2511 104.319C76.4688 104.092 76.8315 103.885 77.3753 103.704C78.7376 103.234 80.3379 102.909 82.1763 102.73C84.0199 102.514 85.9358 102.568 87.9291 102.854C92.2419 103.474 95.2542 104.906 97.0024 107.155C98.7143 109.399 99.3018 112.516 98.7285 116.503L97.0401 128.246L97.1126 128.256ZM81.6063 131.649C82.8023 131.821 84.0657 131.781 85.433 131.533C86.8002 131.286 88.0746 130.656 89.2095 129.709C89.8884 129.104 90.4327 128.405 90.7752 127.567C91.1178 126.728 91.4139 125.698 91.591 124.466L91.8099 122.944C90.7954 122.539 89.7031 122.16 88.5642 121.848C87.4253 121.536 86.3122 121.302 85.1887 121.141C82.7605 120.792 80.9169 121.007 79.5802 121.814C78.2435 122.621 77.4656 123.914 77.2051 125.726C76.9602 127.43 77.2127 128.761 77.9937 129.761C78.7332 130.792 79.9391 131.409 81.6063 131.649ZM110.146 139.748C109.493 139.654 109.074 139.483 108.821 139.187C108.562 138.928 108.381 138.384 108.263 137.664L103.774 108.425C103.661 107.669 103.62 107.182 103.656 106.928C103.74 106.348 104.077 106.064 104.657 106.147L108.208 106.658C108.897 106.757 109.352 106.933 109.57 107.223C109.828 107.483 109.973 108.021 110.091 108.741L112.73 133.609L121.834 110.43C122.119 109.731 122.404 109.291 122.725 109.115C123.047 108.939 123.575 108.867 124.227 108.961L127.127 109.378C127.815 109.477 128.271 109.654 128.524 109.949C128.783 110.208 128.964 110.752 129.01 111.461L131.244 136.567L141.006 113.186C141.327 112.493 141.649 112.058 141.934 111.877C142.255 111.701 142.747 111.624 143.399 111.718L146.77 112.202C147.35 112.286 147.634 112.623 147.546 113.239C147.52 113.42 147.457 113.596 147.39 113.808C147.322 114.02 147.208 114.3 147.006 114.678L134.243 141.437C133.922 142.131 133.6 142.565 133.279 142.741C132.958 142.917 132.466 142.994 131.85 142.905L128.733 142.457C128.044 142.358 127.589 142.182 127.335 141.886C127.082 141.591 126.896 141.083 126.855 140.338L124.599 116.154L115.661 138.691C115.376 139.39 115.091 139.83 114.764 140.042C114.438 140.254 113.915 140.29 113.263 140.196L110.146 139.748ZM156.576 147.423C154.692 147.152 152.838 146.663 151.089 145.968C149.339 145.272 147.993 144.598 147.129 143.919C146.596 143.509 146.25 143.089 146.152 142.742C146.054 142.395 146.033 142.023 146.08 141.696L146.346 139.848C146.455 139.087 146.797 138.766 147.341 138.844C147.558 138.876 147.771 138.943 147.978 139.047C148.185 139.151 148.49 139.343 148.832 139.54C149.986 140.26 151.264 140.888 152.636 141.381C154.044 141.88 155.437 142.228 156.886 142.436C159.169 142.765 161.003 142.621 162.35 142.001C163.696 141.381 164.515 140.315 164.729 138.829C164.875 137.814 164.669 136.934 164.115 136.152C163.562 135.369 162.418 134.576 160.726 133.741L155.705 131.354C153.18 130.14 151.4 128.626 150.438 126.824C149.471 125.057 149.111 123.193 149.382 121.308C149.601 119.786 150.12 118.492 150.939 117.426C151.758 116.36 152.773 115.47 153.975 114.829C155.182 114.152 156.503 113.713 158.016 113.487C159.528 113.26 161.076 113.298 162.671 113.527C163.468 113.642 164.296 113.798 165.078 114.021C165.896 114.25 166.636 114.504 167.376 114.759C168.075 115.044 168.738 115.324 169.359 115.635C169.98 115.947 170.456 116.237 170.787 116.507C171.253 116.87 171.574 117.212 171.744 117.569C171.92 117.89 171.971 118.305 171.898 118.812L171.653 120.515C171.544 121.276 171.197 121.633 170.653 121.555C170.363 121.513 169.913 121.301 169.338 120.922C167.408 119.683 165.156 118.878 162.583 118.508C160.517 118.211 158.84 118.303 157.617 118.83C156.395 119.357 155.664 120.325 155.45 121.811C155.304 122.825 155.541 123.747 156.167 124.54C156.793 125.333 158.035 126.214 159.867 127.107L164.779 129.478C167.269 130.686 168.986 132.117 169.896 133.764C170.806 135.412 171.105 137.193 170.834 139.078C170.61 140.636 170.08 142.003 169.287 143.147C168.458 144.285 167.431 145.247 166.183 145.956C164.929 146.7 163.494 147.16 161.868 147.407C160.164 147.68 158.424 147.688 156.576 147.423Z" fill="white"/>
<path fill-rule="evenodd" clip-rule="evenodd" d="M160.878 166.013C147.688 173.105 129.693 175.289 114.797 173.148C93.9216 170.146 76.222 159.722 63.8598 144.849C62.8823 143.673 64.0951 142.442 65.3214 143.432C79.4061 154.557 97.5842 162.683 117.191 165.502C130.419 167.404 145.349 166.739 159.535 163.008C161.658 162.389 163.044 164.844 160.878 166.013Z" fill="#FF9900"/>
<path fill-rule="evenodd" clip-rule="evenodd" d="M166.66 161.074C165.419 158.898 156.72 158.683 152.774 158.597C151.594 158.575 151.558 157.534 152.719 156.924C160.22 153.12 171.221 156.107 172.296 157.889C173.367 159.708 170.089 170.667 162.939 175.114C161.841 175.807 160.961 175.236 161.552 174.211C163.518 170.832 167.906 163.214 166.66 161.074Z" fill="#FF9900"/>
</g>
<defs>
<filter id="filter0_d_439_2592" x="0" y="0" width="247.188" height="291.172" filterUnits="userSpaceOnUse" color-interpolation-filters="sRGB">
<feFlood flood-opacity="0" result="BackgroundImageFix"/>
<feColorMatrix in="SourceAlpha" type="matrix" values="0 0 0 0 0 0 0 0 0 0 0 0 0 0 0 0 0 0 127 0" result="hardAlpha"/>
<feOffset dx="8" dy="10"/>
<feComposite in2="hardAlpha" operator="out"/>
<feColorMatrix type="matrix" values="0 0 0 0 1 0 0 0 0 0.6 0 0 0 0 0 0 0 0 1 0"/>
<feBlend mode="normal" in2="BackgroundImageFix" result="effect1_dropShadow_439_2592"/>
<feBlend mode="normal" in="SourceGraphic" in2="effect1_dropShadow_439_2592" result="shape"/>
</filter>
</defs>
</svg>
