<svg width="16" height="16" viewBox="0 0 16 16" fill="none" xmlns="http://www.w3.org/2000/svg">
<path d="M11.3307 6.66667V5.33333C11.3307 3.49238 9.83835 2 7.9974 2C6.15645 2 4.66406 3.49238 4.66406 5.33333V6.66667M7.9974 9.66667V11M5.86406 14H10.1307C11.2508 14 11.8109 14 12.2387 13.782C12.615 13.5903 12.921 13.2843 13.1127 12.908C13.3307 12.4802 13.3307 11.9201 13.3307 10.8V9.86667C13.3307 8.74656 13.3307 8.18651 13.1127 7.75869C12.921 7.38236 12.615 7.0764 12.2387 6.88465C11.8109 6.66667 11.2508 6.66667 10.1307 6.66667H5.86406C4.74396 6.66667 4.18391 6.66667 3.75608 6.88465C3.37976 7.0764 3.0738 7.38236 2.88205 7.75869C2.66406 8.18651 2.66406 8.74656 2.66406 9.86667V10.8C2.66406 11.9201 2.66406 12.4802 2.88205 12.908C3.0738 13.2843 3.37976 13.5903 3.75608 13.782C4.18391 14 4.74396 14 5.86406 14Z" stroke="#1271FF" stroke-width="1.33333" stroke-linecap="round" stroke-linejoin="round"/>
</svg>
