<svg width="129" height="110" viewBox="0 0 129 110" fill="none" xmlns="http://www.w3.org/2000/svg">
<path d="M75.9095 93.5291C62.9541 88.657 50.7739 78.1377 48.6147 63.9089C44.4623 36.2819 75.079 4.66858 102.983 18.0669C123.911 28.1433 134.596 56.2686 123.911 77.0858C122.084 80.6291 119.316 84.2278 116.215 86.7192C113.225 89.0999 109.461 90.3733 105.862 91.4806C96.173 94.4703 81.8336 97.46 72.1447 91.9235" stroke="#1271FF" stroke-width="1.66094" stroke-miterlimit="10" stroke-linecap="round" stroke-linejoin="round"/>
<path d="M85.9826 94.0311C87.8097 90.4877 84.6538 86.4461 81.6641 85.1727C79.1727 84.1208 76.4045 85.5049 73.9684 84.3976C71.2555 83.1796 70.0375 80.5221 67.8229 78.7504C64.7225 76.259 59.0753 76.0929 55.4766 77.5324" stroke="#1271FF" stroke-width="1.66094" stroke-miterlimit="10" stroke-linecap="round" stroke-linejoin="round"/>
<path d="M53.3721 40.4342C55.5867 38.7179 61.4 38.7179 62.0644 41.7076C63.1717 46.7458 58.7425 47.1333 57.5245 51.1196C56.085 55.9363 62.1198 58.151 56.9155 62.6909C56.1404 63.3552 55.1992 63.6874 54.258 64.075C53.206 64.5179 50.9361 65.0715 49.7734 65.0715" stroke="#1271FF" stroke-width="1.66094" stroke-miterlimit="10" stroke-linecap="round" stroke-linejoin="round"/>
<path d="M107.518 88.4924C109.013 84.5615 105.801 81.3503 101.871 81.0735C95.2822 80.5198 80.9427 83.7864 80.2229 72.9349C79.7247 65.516 86.0362 60.81 93.3997 61.6405C96.4448 61.9727 101.262 63.6336 104.196 62.2495C106.41 61.1975 105.802 58.0417 106.466 56.1593C107.241 53.9447 109.677 52.7821 111.836 52.4499C114.881 52.007 123.297 54.443 125.622 52.3945" stroke="#1271FF" stroke-width="1.66094" stroke-miterlimit="10" stroke-linecap="round" stroke-linejoin="round"/>
<path d="M116.823 29.9176C119.148 36.2292 110.512 43.6481 104.92 41.4335C99.6047 39.2743 102.041 32.4644 97.9991 30.2498C92.7394 27.3708 87.1476 31.0249 81.9986 28.6996C78.1785 26.9833 76.7944 22.1112 73.8047 19.7305" stroke="#1271FF" stroke-width="1.66094" stroke-miterlimit="10" stroke-linecap="round" stroke-linejoin="round"/>
<path d="M91.0231 103.221C87.0368 103.498 82.2754 103.387 78.4552 102.446C75.9085 101.782 73.6939 100.563 71.2578 99.8438" stroke="#1271FF" stroke-width="1.66094" stroke-miterlimit="10" stroke-linecap="round" stroke-linejoin="round"/>
<path d="M70.1484 105.211C72.8613 106.706 75.7403 107.481 78.73 108.367" stroke="#1271FF" stroke-width="1.66094" stroke-miterlimit="10" stroke-linecap="round" stroke-linejoin="round"/>
<path d="M73.3594 12.5341C77.8993 8.6032 85.5396 7.55126 91.2976 8.82466" stroke="#1271FF" stroke-width="1.66094" stroke-miterlimit="10" stroke-linecap="round" stroke-linejoin="round"/>
<path d="M75.1328 5.00236C75.6865 4.22726 76.7384 3.95043 77.5689 3.61824C79.4513 2.95387 81.9427 1.68048 84.0466 2.06804" stroke="#1271FF" stroke-width="1.66094" stroke-miterlimit="10" stroke-linecap="round" stroke-linejoin="round"/>
<path d="M10.8538 33.5141C9.63582 32.1299 8.30706 30.7458 6.97831 29.4171C5.98174 28.4205 5.04054 27.4239 3.93324 26.4827C3.0474 25.763 1.55258 24.9325 1.0543 23.8806C0.445284 22.6625 2.99205 22.1643 3.60106 22.0535C6.03712 21.666 9.13752 22.3857 11.4628 23.1055C12.1826 23.3269 14.2311 24.7111 15.0062 24.102C17.8852 21.9982 14.0096 14.1364 16.9993 12.3647C17.8298 11.8664 19.3246 13.3059 19.7676 13.9149C21.65 16.6278 21.5946 20.5587 23.5877 23.0501C25.9684 26.0398 32.8337 23.6591 34.7715 26.981C37.0414 30.9119 26.5775 30.9673 25.747 33.2372C24.529 36.4484 25.9685 41.8742 26.2453 45.2514C26.356 46.3587 26.7989 48.684 26.3006 49.6252C26.1345 49.902 23.8646 47.4106 23.7539 47.2445C22.259 45.3621 20.6534 41.8741 17.9406 41.4866C13.5667 40.8222 12.4594 47.2445 8.30707 46.857C6.92295 46.7462 6.81221 44.4209 6.97831 43.369C7.64268 39.881 13.5667 36.0608 10.4663 33.0158" stroke="#1271FF" stroke-width="1.66094" stroke-miterlimit="10" stroke-linecap="round" stroke-linejoin="round"/>
</svg>
