<svg width="130" height="115" viewBox="0 0 130 115" fill="none" xmlns="http://www.w3.org/2000/svg">
<path d="M105.799 86.2981C106.699 108.298 124.099 109.998 127.099 112.298C127.199 112.398 127.799 112.698 127.799 112.798C127.599 114.298 117.799 112.698 116.599 112.398C111.399 110.998 105.999 109.098 101.699 105.798C100.799 105.098 97.2993 101.098 96.3993 101.198C90.1993 101.998 84.5992 106.898 78.4992 108.298C56.0992 113.698 34.2993 110.898 16.3993 94.9981C-6.20074 74.7981 1.49926 41.1981 17.3993 20.1981C30.3993 2.99812 56.3993 -2.70188 75.8993 5.19812C84.0993 8.49812 92.0992 13.0981 93.9992 22.4981C94.4992 24.7981 94.5992 27.1981 94.1992 29.4981C93.8992 31.1981 93.1992 32.9981 92.4992 34.5981C86.0992 49.5981 76.7992 32.1981 89.1992 25.7981C90.9992 24.7981 93.3993 25.6981 95.3993 26.2981C118.899 33.1981 111.599 77.0981 91.5992 84.5981C84.3992 87.2981 77.7992 82.1981 75.0992 75.3981C74.0992 72.9981 73.4992 70.4981 73.4992 67.8981C73.4992 66.6981 73.8992 63.0981 73.6992 64.2981C72.4992 70.4981 65.1993 94.7981 55.7993 83.0981C52.2993 78.6981 55.2993 64.2981 48.2993 64.8981C42.8993 65.3981 39.7992 72.4981 38.5992 76.9981C38.1992 78.5981 37.8992 80.1981 37.6992 81.7981C37.6992 81.9981 37.3993 84.3981 37.2993 84.3981C34.6993 83.9981 34.4993 70.3981 34.7993 68.4981C37.2993 54.7981 39.4993 40.1981 45.8993 27.6981C48.5993 22.3981 54.8993 16.3981 60.8993 20.8981C68.2993 26.3981 63.8992 36.0981 59.6992 42.0981C51.7992 53.2981 37.8993 62.1981 23.7993 58.1981" stroke="#1271FF" stroke-width="3" stroke-miterlimit="10" stroke-linecap="round" stroke-linejoin="round"/>
</svg>
