<svg width="174" height="40" viewBox="0 0 174 40" fill="none" xmlns="http://www.w3.org/2000/svg">
<g clip-path="url(#clip0_28_45342)">
<path d="M11.2857 26.8711L6.8643 16.6354L2.44287 14.8711V29.9711L5.97144 31.3711L5.98573 21.9425L10.4 33.1282L14.8214 34.8711V19.7854L11.2857 18.3854V26.8711Z" fill="white"/>
<path d="M39.7 7.52143H39.6929L20.4286 0L0 7.97857L19.9071 15.75C19.9071 15.75 19.9286 15.7571 19.95 15.7643V40L40 32.1714V7.64286L39.7 7.52857V7.52143ZM34.65 30.1071L31.4143 31.4L30.7357 26.3071L30.0571 31.95L26.8286 33.2429L24.45 20.15L27.1429 19.0714L28.6571 26.6786L29.6714 18.0571L31.7643 17.2214L32.7714 25L34.2857 16.2143L37.0357 15.1143L34.6571 30.1071H34.65Z" fill="white"/>
</g>
<path d="M68.3793 12.7272V27.2726H65.3963L59.608 18.8778H59.5156V27.2726H56V12.7272H59.0256L64.75 21.1079H64.8707V12.7272H68.3793Z" fill="white"/>
<path d="M70.5898 27.2726V12.7272H80.7319V15.5823H74.1055V18.5653H80.2134V21.4275H74.1055V24.4175H80.7319V27.2726H70.5898Z" fill="white"/>
<path d="M86.4918 12.7272L89.1481 17.3224H89.2617L91.9464 12.7272H95.881L91.4918 19.9999L96.0231 27.2726H91.989L89.2617 22.6278H89.1481L86.4208 27.2726H82.4151L86.9251 19.9999L82.5288 12.7272H86.4918Z" fill="white"/>
<path d="M97.2234 15.5823V12.7272H109.517V15.5823H105.107V27.2726H101.641V15.5823H97.2234Z" fill="white"/>
<path d="M114.722 27.2726L110.489 12.7272H114.374L116.568 22.2584H116.689L119.196 12.7272H122.364L124.871 22.2797H124.991L127.193 12.7272H131.071L126.845 27.2726H123.457L120.837 18.4516H120.723L118.102 27.2726H114.722Z" fill="white"/>
<path d="M145.393 19.9999C145.393 21.6003 145.085 22.9568 144.469 24.0695C143.854 25.1822 143.021 26.0274 141.969 26.605C140.923 27.1827 139.749 27.4715 138.447 27.4715C137.14 27.4715 135.963 27.1803 134.917 26.5979C133.87 26.0155 133.04 25.1704 132.424 24.0624C131.813 22.9497 131.508 21.5956 131.508 19.9999C131.508 18.3995 131.813 17.043 132.424 15.9303C133.04 14.8176 133.87 13.9724 134.917 13.3948C135.963 12.8171 137.14 12.5283 138.447 12.5283C139.749 12.5283 140.923 12.8171 141.969 13.3948C143.021 13.9724 143.854 14.8176 144.469 15.9303C145.085 17.043 145.393 18.3995 145.393 19.9999ZM141.799 19.9999C141.799 19.0529 141.664 18.2528 141.394 17.5993C141.129 16.9459 140.746 16.4511 140.244 16.115C139.746 15.7788 139.147 15.6107 138.447 15.6107C137.751 15.6107 137.152 15.7788 136.65 16.115C136.148 16.4511 135.762 16.9459 135.492 17.5993C135.227 18.2528 135.094 19.0529 135.094 19.9999C135.094 20.9469 135.227 21.7471 135.492 22.4005C135.762 23.0539 136.148 23.5487 136.65 23.8849C137.152 24.221 137.751 24.3891 138.447 24.3891C139.147 24.3891 139.746 24.221 140.244 23.8849C140.746 23.5487 141.129 23.0539 141.394 22.4005C141.664 21.7471 141.799 20.9469 141.799 19.9999Z" fill="white"/>
<path d="M147.445 27.2726V12.7272H153.454C154.543 12.7272 155.483 12.9237 156.273 13.3167C157.069 13.7049 157.682 14.2636 158.113 14.9928C158.544 15.7172 158.759 16.5766 158.759 17.5709C158.759 18.5795 158.539 19.4365 158.099 20.142C157.658 20.8427 157.033 21.3778 156.224 21.7471C155.414 22.1117 154.455 22.2939 153.347 22.2939H149.548V19.5241H152.694C153.224 19.5241 153.667 19.4554 154.022 19.3181C154.382 19.176 154.654 18.963 154.839 18.6789C155.023 18.3901 155.116 18.0207 155.116 17.5709C155.116 17.1211 155.023 16.7494 154.839 16.4559C154.654 16.1576 154.382 15.935 154.022 15.7883C153.662 15.6367 153.219 15.561 152.694 15.561H150.961V27.2726H147.445ZM155.634 20.6249L159.256 27.2726H155.421L151.87 20.6249H155.634Z" fill="white"/>
<path d="M160.688 27.2726V12.7272H164.203V18.8778H164.395L169.203 12.7272H173.344L168.188 19.2187L173.436 27.2726H169.232L165.609 21.5553L164.203 23.3309V27.2726H160.688Z" fill="white"/>
<defs>
<clipPath id="clip0_28_45342">
<rect width="40" height="40" fill="white"/>
</clipPath>
</defs>
</svg>
