<svg width="78" height="78" viewBox="0 0 78 78" fill="none" xmlns="http://www.w3.org/2000/svg">
<g clip-path="url(#clip0_439_2598)">
<mask id="mask0_439_2598" style="mask-type:luminance" maskUnits="userSpaceOnUse" x="0" y="0" width="78" height="78">
<path d="M78 0H0V78H78V0Z" fill="white"/>
</mask>
<g mask="url(#mask0_439_2598)">
<path fill-rule="evenodd" clip-rule="evenodd" d="M78 38.4241C76.626 38.7996 75.1799 39 73.687 39H56.2509C47.2356 39 39.9274 46.3082 39.9274 55.3231V74.6144C39.9274 75.775 39.8061 76.9076 39.576 78C39.2005 76.626 39 75.1799 39 73.687V56.2509C39 47.2356 31.6919 39.9274 22.6768 39.9274H3.38568C2.22483 39.9274 1.09228 39.8061 0 39.576C1.37393 39.2005 2.82011 39 4.31313 39H21.7493C30.7644 39 38.0726 31.6918 38.0726 22.6768V3.38566C38.0726 2.22482 38.1938 1.09228 38.4241 0C38.7996 1.37393 39 2.82012 39 4.31313V21.7493C39 30.7644 46.3082 38.0726 55.3234 38.0726H74.6144C75.775 38.0726 76.9076 38.1938 78 38.4241Z" fill="url(#paint0_linear_439_2598)"/>
</g>
</g>
<defs>
<linearGradient id="paint0_linear_439_2598" x1="39" y1="0" x2="39" y2="78" gradientUnits="userSpaceOnUse">
<stop offset="0.62" stop-color="white"/>
<stop offset="1" stop-color="white" stop-opacity="0"/>
</linearGradient>
<clipPath id="clip0_439_2598">
<rect width="78" height="78" fill="white"/>
</clipPath>
</defs>
</svg>
