<svg width="124" height="100" viewBox="0 0 124 100" fill="none" xmlns="http://www.w3.org/2000/svg">
<path d="M49.4962 85.5995C47.4962 82.2995 33.5961 83.0995 27.3961 82.5995C10.8961 81.0995 4.09616 83.7995 4.19616 65.0995C4.29616 58.4995 2.19616 51.5995 2.19616 44.6995C2.19616 35.0995 -1.90386 12.4995 9.79614 8.09951C24.5961 2.49951 97.6961 -0.800438 111.496 6.39956C119.596 10.5996 123.496 57.2995 120.596 67.6995C119.596 71.3995 116.696 74.2996 113.896 76.8996C104.096 86.0996 90.1961 77.8995 78.7961 82.0995C69.2961 85.5995 65.7962 98.4996 61.6962 98.3996C56.9962 98.2996 56.2961 83.1995 41.3961 83.0995" stroke="#1271FF" stroke-width="3" stroke-miterlimit="1.5" stroke-linecap="round"/>
<path d="M41.994 31.8999C42.394 32.4999 41.094 30.6999 40.494 30.2999C38.994 29.3999 37.4939 28.4999 35.8939 27.7999C31.6939 26.0999 25.594 26.2999 24.194 31.3999C21.394 41.5999 31.5939 52.7999 38.3939 59.0999C39.7939 60.3999 43.794 65.3999 46.094 65.2999C49.694 65.0999 51.8939 60.0999 53.3939 57.3999C56.8939 51.3999 68.794 33.8998 59.594 28.1998C55.894 25.8998 48.394 28.0999 45.094 30.3999C43.994 31.0999 42.794 33.9998 38.694 29.1998" stroke="#1271FF" stroke-width="3" stroke-miterlimit="1.5" stroke-linecap="round"/>
<path d="M76.2969 31.8988C76.6969 31.6988 77.0969 31.3988 77.4969 31.1988C79.4969 30.0988 81.1969 28.6989 82.9969 27.2989C83.3969 26.9989 85.3969 24.9989 85.0969 25.7989C85.0969 25.7989 84.9969 26.7988 84.9969 26.8988C84.8969 27.5988 84.7969 28.2988 84.6969 28.9988C84.4969 31.1988 84.2969 33.4988 84.1969 35.6988C84.0969 42.4988 84.6969 49.3988 84.9969 56.0988C85.0969 57.3988 84.3969 61.8988 85.4969 62.9988" stroke="#1271FF" stroke-width="3" stroke-miterlimit="1.5" stroke-linecap="round"/>
<path d="M44.1953 63.8C48.6953 57.7 52.7953 51.3 56.7953 44.8C58.0953 42.6 59.4953 39.0999 60.7953 36.9999C61.1953 36.2999 61.9953 33.5999 62.3953 32.9999C62.4953 32.7999 62.9953 31.8999 62.8953 31.9999" stroke="#1271FF" stroke-width="3" stroke-miterlimit="1.5" stroke-linecap="round"/>
<path d="M41 60.7997C41.1 60.7997 42 59.3997 42 59.2997C43.2 57.4997 44.3 55.4996 45.5 53.5996C49.2 47.7996 52.9 41.8996 56.6 36.0996C57.5 34.6996 58.5 33.1997 59.4 31.7997C59.5 31.6997 60 30.5996 60.2 30.5996" stroke="#1271FF" stroke-width="3" stroke-miterlimit="1.5" stroke-linecap="round"/>
<path d="M36.5971 56.5004C36.4971 56.6004 37.0971 55.6004 37.1971 55.5004C37.5971 54.8004 38.0971 54.2004 38.4971 53.5004C39.7971 51.6004 41.0971 49.7003 42.2971 47.7003C45.2971 43.0003 48.1971 38.2004 51.0971 33.4004C51.7971 32.3004 52.4971 31.1004 53.2971 30.0004C53.3971 29.8004 54.0971 29.2004 54.0971 28.9004" stroke="#1271FF" stroke-width="3" stroke-miterlimit="1.5" stroke-linecap="round"/>
<path d="M47.8953 29.1992C47.8953 29.4992 45.8953 31.8992 45.7953 32.1992C44.9953 33.5992 44.0953 34.8992 43.2953 36.1992C41.2953 39.3992 39.4953 42.5993 37.4953 45.7993C36.2953 47.7993 33.6953 50.4992 32.6953 52.5992" stroke="#1271FF" stroke-width="3" stroke-miterlimit="1.5" stroke-linecap="round"/>
<path d="M38.9984 30.9993C38.8984 30.8993 39.1984 30.6992 39.0984 30.6992C38.3984 30.9992 37.6984 32.8993 37.2984 33.3993C35.3984 36.3993 33.4984 39.4992 31.7984 42.5992C31.1984 43.5992 30.6985 44.5992 30.1985 45.5992C29.9985 45.8992 29.8985 46.2992 29.6985 46.5992C29.6985 46.6992 29.3984 47.0993 29.3984 46.9993" stroke="#1271FF" stroke-width="3" stroke-miterlimit="1.5" stroke-linecap="round"/>
<path d="M33.8969 28C33.1969 28.2 32.0969 30.8 31.6969 31.5C29.7969 34.8 28.0969 38.7 25.7969 41.8" stroke="#1271FF" stroke-width="3" stroke-miterlimit="1.5" stroke-linecap="round"/>
<path d="M91.6953 62.4004C91.0953 62.5004 90.6953 62.7003 90.0953 62.7003C88.7953 62.6003 87.8953 62.6003 86.7953 62.6003C83.5953 62.7003 80.2953 63.1004 77.1953 63.5004" stroke="#1271FF" stroke-width="3" stroke-miterlimit="1.5" stroke-linecap="round"/>
</svg>
