<svg width="84" height="26" viewBox="0 0 84 26" fill="none" xmlns="http://www.w3.org/2000/svg">
<g clip-path="url(#clip0_524_1925)">
<path d="M47.526 2.27663C47.5252 2.10795 47.5244 1.93926 47.5234 1.74346L47.7596 1.74231C51.346 1.72487 54.9327 1.70743 58.5195 1.68999C60.1941 1.65998 61.8623 1.9126 63.4525 2.43717C64.5508 2.81103 65.5816 3.3583 66.5057 4.05804C67.2903 4.6554 67.9844 5.36221 68.5664 6.15668C69.5154 7.45533 70.1582 8.95034 70.4477 10.5305C70.6349 11.5148 70.7188 12.5159 70.698 13.5176C70.6977 15.0498 70.4245 16.5698 69.8912 18.0069C69.2495 19.6894 68.1838 21.1791 66.7973 22.3328C65.4103 23.4864 63.7488 24.2652 61.9726 24.5943C60.8072 24.8335 59.6196 24.9504 58.4298 24.9429L47.6548 24.9953L47.6515 24.3205L50.1401 24.206L50.0346 2.51747L48.867 2.47195C48.4736 2.4588 48.0806 2.44565 47.6844 2.44155L47.5268 2.44231L47.526 2.27663ZM55.7375 24.1788L55.8979 24.178C56.8051 24.1736 57.7367 24.1691 58.6526 24.1315C59.8117 24.096 60.9203 23.6507 61.7798 22.8752C62.653 22.0755 63.3167 21.0754 63.7132 19.9619C64.2408 18.5293 64.5495 17.026 64.6288 15.5021C64.7586 13.7963 64.7299 12.0821 64.5437 10.3815C64.415 8.87057 64.0389 7.39083 63.4303 6.0009C63.0058 5.04422 62.3592 4.20175 61.5437 3.54295C60.7261 2.88893 59.719 2.51461 58.6715 2.47548C57.7002 2.43502 56.7268 2.45782 55.7528 2.45352C55.7121 2.45686 55.6714 2.46412 55.6319 2.4752L55.7375 24.1788Z" fill="white"/>
<path d="M72.2373 24.3192C72.2382 24.4999 72.2391 24.6806 72.24 24.8644L83.3203 24.8105L83.3171 24.1448L80.3264 24.1593L80.2147 1.17551C80.1797 1.18131 80.1455 1.18953 80.1118 1.20011L76.5417 2.72366L72.2622 4.55189C72.2138 4.57321 72.1445 4.63982 72.148 4.68198C72.1502 4.71898 72.1601 4.75514 72.1766 4.78823C72.1934 4.8213 72.2168 4.8506 72.2458 4.8743C73.1534 5.37596 74.063 5.87359 74.9747 6.36722C75.0363 6.39216 75.0878 6.43654 75.121 6.49355C75.1547 6.55055 75.1689 6.61698 75.1607 6.68261C75.1879 12.2945 75.2173 18.3372 75.2446 23.9491L75.2457 24.184L72.2368 24.1987L72.2373 24.3192Z" fill="white"/>
<path d="M17.8726 14.3347C17.8876 9.93657 14.2401 6.15873 9.86695 6.11973C9.64732 6.07988 9.42274 6.07486 9.20154 6.10489C9 6.08302 8.79637 6.09008 8.59682 6.12591C4.19984 6.17139 0.553128 10.0028 0.61089 14.4187C0.595984 18.8168 4.24036 22.5916 8.61662 22.6336C8.83522 22.6731 9.05879 22.6782 9.27897 22.6485C9.48055 22.67 9.68414 22.6629 9.88373 22.6274C14.2867 22.5819 17.9304 18.7506 17.8726 14.3347ZM17.1558 14.3051C15.9153 14.1906 14.672 14.1183 13.4288 14.0762C13.4031 13.754 13.3683 13.4318 13.3244 13.1127C13.0896 11.4842 13.0688 9.69191 12.2421 8.21383C11.8392 7.46573 11.2063 6.6645 10.4182 6.29478C12.2911 6.66207 13.9812 7.65727 15.2071 9.11476C16.433 10.5722 17.1207 12.4039 17.1558 14.3051ZM9.28181 22.6123L9.28163 22.5761C9.52382 19.9721 9.63025 17.3574 9.60043 14.7424C10.7435 14.7369 11.8865 14.7072 13.0295 14.6625C12.9109 16.1746 12.6137 17.6674 12.1438 19.1101C11.6426 20.5132 10.9133 22.276 9.28474 22.5882L9.28181 22.6123ZM5.41162 14.6875C6.57007 14.7241 7.72838 14.7334 8.88665 14.7338C8.89937 17.3515 8.99678 19.9658 9.27555 22.5641C7.64086 22.2347 6.92182 20.5181 6.31335 19.1475C5.97248 18.4069 5.71418 17.6313 5.54303 16.8347C5.41544 16.1265 5.37134 15.4059 5.41162 14.6875ZM9.20172 6.14104L9.20189 6.1772C8.89379 8.73319 8.88865 11.4112 8.87409 14.011C7.73096 14.0165 6.59094 14.0431 5.448 14.0878C5.56537 12.5766 5.86265 11.0847 6.33367 9.64331C6.83492 8.24013 7.56425 6.47736 9.18974 6.16521L9.20172 6.14104ZM9.59993 14.0195C9.5872 11.4018 9.49281 8.78748 9.2171 6.18918C10.8457 6.52464 11.5648 8.23822 12.1732 9.60587C12.5145 10.3463 12.7728 11.1219 12.9435 11.9187C13.0719 12.6298 13.116 13.3535 13.075 14.0749C11.9165 14.0323 10.7582 14.0199 9.59993 14.0195ZM3.56836 8.77716C4.76327 7.52049 6.31573 6.65831 8.01706 6.30646C7.21445 6.6809 6.5772 7.48227 6.15746 8.23137C5.16215 10.0256 4.90907 12.0903 5.01873 14.117C3.78813 14.1712 2.55769 14.2555 1.33047 14.382C1.32299 12.2962 2.12477 10.2881 3.56836 8.77716ZM1.3308 14.4483C2.57128 14.5628 3.81156 14.635 5.05472 14.6772C5.0835 15.0024 5.11832 15.3215 5.16222 15.6406C5.39693 17.2691 5.41778 19.0614 6.24149 20.5395C6.64433 21.2877 7.28029 22.0888 8.06534 22.4586C6.19272 22.0912 4.50301 21.0959 3.27762 19.6383C2.05223 18.1808 1.36514 16.3491 1.3308 14.4483ZM10.4695 22.4469C11.2722 22.0724 11.9094 21.2711 12.3291 20.522C13.3244 18.7247 13.5745 16.6601 13.4678 14.6333C14.6984 14.5791 15.9289 14.4948 17.1561 14.3713C17.1617 16.4568 16.3602 18.4642 14.9182 19.9762C13.7217 21.2307 12.1699 22.0925 10.4695 22.4469Z" fill="white"/>
<path d="M44.8928 13.8107L34.8013 13.8598L34.8048 14.5797L35.068 14.5784C36.5105 14.5714 37.953 14.5644 39.3955 14.5574C39.5891 14.5564 39.6377 14.6134 39.6325 14.7972C39.6349 15.2792 39.6372 15.7581 39.6396 16.2401C39.6506 18.5054 39.6616 20.7686 39.6726 23.0298C39.6759 23.128 39.6442 23.2242 39.5832 23.3014C39.1846 23.7016 38.7045 24.0121 38.1753 24.2119C37.3343 24.5291 36.4336 24.658 35.537 24.5893C34.4699 24.5293 33.46 24.0895 32.6913 23.3499C31.7866 22.4836 31.1174 21.4027 30.7465 20.2084C30.2859 18.7814 30.0184 17.2996 29.9509 15.8022C29.8883 14.7482 29.8772 13.6939 29.8841 12.6365C29.8837 11.1462 30.0294 9.65936 30.3192 8.19719C30.573 6.74834 31.1514 5.37508 32.0113 4.1795C32.6259 3.28308 33.5263 2.61956 34.5667 2.29639C35.3638 2.0335 36.2326 2.09199 36.9869 2.45934C37.76 2.85824 38.4599 3.38444 39.0569 4.01571C40.4794 5.4698 41.8749 6.9511 43.279 8.42335L43.6895 8.85517C43.477 6.68125 43.2731 4.51735 43.0773 2.36345C41.5478 1.99081 39.9973 1.71065 38.4339 1.52449C37.0765 1.35702 35.7061 1.3203 34.3416 1.41485C32.7427 1.52877 31.1829 1.9604 29.754 2.68429C28.3639 3.39272 27.1466 4.39604 26.1877 5.62362C25.2543 6.84058 24.6023 8.24779 24.2783 9.74482C23.8955 11.4597 23.7817 13.2233 23.9408 14.9729C24.0506 16.4639 24.4157 17.9251 25.0203 19.2934C25.7077 20.8794 26.8307 22.2397 28.2601 23.2179C29.7496 24.2331 31.4469 24.906 33.2294 25.1879C34.3815 25.3899 35.5561 25.4329 36.72 25.3155C37.2395 25.2596 37.7559 25.1777 38.2672 25.07C38.2672 25.07 42.4479 24.0616 44.2005 21.3149L44.218 24.9296L44.9469 24.9261L44.9117 17.6965L44.8928 13.8107Z" fill="white"/>
</g>
<defs>
<clipPath id="clip0_524_1925">
<rect width="83.0639" height="24.4306" fill="white" transform="translate(0.375 1.35547) rotate(-0.278586)"/>
</clipPath>
</defs>
</svg>
