<svg width="226" height="26" viewBox="0 0 226 26" fill="none" xmlns="http://www.w3.org/2000/svg">
<g clip-path="url(#clip0_527_1941)">
<path d="M125.325 13.3089C126.956 12.071 128.215 10.4087 128.965 8.50355C129.742 6.58768 130.13 4.1451 130.13 1.17578H119.147C119.163 2.318 119.031 3.45747 118.755 4.56608C118.535 5.46131 118.157 6.30994 117.638 7.07196C117.182 7.73413 116.576 8.27856 115.869 8.66039C115.138 9.04277 114.334 9.26583 113.51 9.31486V1.17814H102.734V25.5376H113.51V16.645C117.022 16.7731 118.911 19.7373 119.178 25.5376H130.816C130.634 22.6217 130.078 20.1658 129.147 18.1697C128.216 16.1737 126.942 14.5534 125.324 13.3089" fill="white"/>
<path d="M22.4808 13.2134C23.5028 12.6379 24.289 11.9273 24.8393 11.0814C25.3896 10.2355 25.6647 9.20048 25.6647 7.97643C25.6647 5.82629 24.8452 4.15532 23.206 2.9635C21.5834 1.77169 19.2984 1.17578 16.3511 1.17578H0.960938L0.960938 25.5376H18.1389C20.6184 25.5376 22.6034 24.9362 24.094 23.7334C25.5743 22.5423 26.3145 20.8981 26.3145 18.8006C26.3145 17.4917 25.9898 16.3981 25.3404 15.52C24.6911 14.6419 23.7383 13.873 22.482 13.2134M13.008 20.3855C12.445 20.3858 11.8945 20.219 11.4263 19.9064C10.958 19.5938 10.593 19.1494 10.3773 18.6293C10.1616 18.1092 10.105 17.5369 10.2146 16.9846C10.3242 16.4324 10.5951 15.9251 10.9931 15.5268C11.391 15.1285 11.8982 14.8572 12.4503 14.7471C13.0025 14.637 13.5749 14.6932 14.0951 14.9084C14.6154 15.1237 15.0601 15.4883 15.3731 15.9563C15.6861 16.4243 15.8533 16.9747 15.8535 17.5377C15.8532 18.2925 15.5531 19.0162 15.0193 19.5498C14.4855 20.0834 13.7616 20.3832 13.0068 20.3832M13.0068 11.2913C12.4438 11.2913 11.8933 11.1243 11.4252 10.8114C10.957 10.4986 10.5922 10.0539 10.3767 9.53369C10.1613 9.01346 10.105 8.44103 10.2149 7.88879C10.3249 7.33656 10.5961 6.82934 10.9943 6.43127C11.3926 6.0332 11.8999 5.76217 12.4522 5.65247C13.0045 5.54276 13.5769 5.5993 14.097 5.81494C14.6172 6.03058 15.0617 6.39563 15.3743 6.86392C15.687 7.33221 15.8537 7.8827 15.8535 8.44577C15.8532 9.20055 15.5531 9.92431 15.0193 10.4579C14.4855 10.9915 13.7616 11.2913 13.0068 11.2913Z" fill="white"/>
<path d="M90.1755 11.7599C90.7439 11.4399 91.6087 11.2803 92.7699 11.2811C93.5315 11.2805 94.292 11.3389 95.0446 11.4556C95.7532 11.5629 96.4506 11.7342 97.1283 11.9674L101.646 3.35898C100.433 2.58541 98.9321 1.96945 97.1436 1.51112C95.4102 1.0425 93.6233 0.801091 91.8276 0.792969C89.3371 0.792969 87.049 1.31458 84.9633 2.35781C82.9337 3.36749 81.2337 4.93454 80.0624 6.87546C78.858 8.84086 78.2566 11.0598 78.2582 13.5322C78.2409 15.7467 78.8197 17.925 79.9339 19.8388C81.0468 21.7712 82.7003 23.3361 84.6909 24.3411C86.7451 25.4048 89.1186 25.937 91.8111 25.9378C93.5681 25.9276 95.3169 25.6967 97.0163 25.2503C98.8465 24.7786 100.39 24.167 101.646 23.4154L97.1283 14.1879C96.5173 14.4763 95.874 14.6905 95.212 14.8259C94.4875 14.9767 93.7493 15.0514 93.0092 15.0487C91.8174 15.0487 90.9047 14.884 90.2711 14.5546C89.6374 14.2252 89.3206 13.7571 89.3206 13.1502C89.3206 12.5425 89.6056 12.0794 90.1755 11.761" fill="white"/>
<path d="M153.52 13.0376C154.542 12.4622 155.328 11.7515 155.878 10.9056C156.429 10.0597 156.704 9.0247 156.704 7.80065C156.704 5.65051 155.884 3.97953 154.245 2.78772C152.622 1.59591 150.338 1 147.39 1L132 1V25.3618H149.178C151.657 25.3618 153.641 24.7604 155.132 23.5576C156.611 22.3666 157.351 20.7223 157.351 18.6249C157.351 17.3159 157.027 16.2224 156.377 15.3442C155.728 14.4661 154.775 13.6972 153.52 13.0376ZM144.288 20.2097C143.725 20.209 143.175 20.0415 142.707 19.7284C142.24 19.4152 141.875 18.9704 141.66 18.4503C141.445 17.9301 141.389 17.3579 141.5 16.806C141.61 16.254 141.881 15.7471 142.279 15.3493C142.677 14.9515 143.184 14.6807 143.736 14.571C144.288 14.4613 144.861 14.5177 145.381 14.7331C145.901 14.9485 146.345 15.3131 146.658 15.7811C146.971 16.249 147.138 16.7991 147.138 17.3619C147.138 17.7362 147.065 18.1068 146.921 18.4526C146.778 18.7984 146.568 19.1126 146.304 19.3772C146.039 19.6417 145.724 19.8514 145.379 19.9943C145.033 20.1371 144.662 20.2104 144.288 20.2097ZM144.288 11.1178C143.725 11.1181 143.174 10.9513 142.706 10.6386C142.237 10.3259 141.872 9.88129 141.657 9.36108C141.441 8.84087 141.385 8.26841 141.494 7.7161C141.604 7.16378 141.875 6.65645 142.274 6.25826C142.672 5.86008 143.179 5.58893 143.731 5.47913C144.284 5.36933 144.856 5.4258 145.376 5.64141C145.897 5.85701 146.341 6.22206 146.654 6.69037C146.967 7.15869 147.133 7.70922 147.133 8.27234C147.133 9.02702 146.833 9.75078 146.3 10.2844C145.766 10.818 145.042 11.1178 144.288 11.1178Z" fill="white"/>
<path d="M193.397 13.8679C194.265 13.2699 194.975 12.4698 195.465 11.5365C195.946 10.5869 196.189 9.53474 196.173 8.47053C196.182 7.18512 195.828 5.92322 195.152 4.83023C194.47 3.70288 193.454 2.81413 192.102 2.16398C190.751 1.51383 189.208 1.18443 187.475 1.17578L171.398 1.17578V25.5376H182.174V16.5176H182.238C183.686 16.5176 184.772 17.2201 185.495 18.6249C186.218 20.0298 186.69 22.334 186.91 25.5376H198.101C197.856 23.165 197.342 21.003 196.561 19.0518C195.813 17.1543 194.74 15.4014 193.391 13.8714M183.398 11.2972C182.835 11.2974 182.285 11.1306 181.816 10.8179C181.348 10.5052 180.983 10.0606 180.767 9.5404C180.552 9.02019 180.495 8.44772 180.605 7.89541C180.715 7.3431 180.986 6.83577 181.384 6.43758C181.782 6.0394 182.29 5.76825 182.842 5.65845C183.394 5.54865 183.967 5.60512 184.487 5.82073C185.007 6.03633 185.452 6.40138 185.765 6.86969C186.077 7.33801 186.244 7.88854 186.244 8.45166C186.244 9.20633 185.944 9.9301 185.41 10.4637C184.877 10.9974 184.153 11.2972 183.398 11.2972Z" fill="white"/>
<path d="M37.9408 1.17578H27.1484V25.5376H47.3912V18.816H37.9408V1.17578Z" fill="white"/>
<path d="M169.354 1.17578H158.578V25.5376H169.354V1.17578Z" fill="white"/>
<path d="M223.336 7.15885C222.242 5.23395 220.596 3.68215 218.609 2.70488C216.576 1.68288 214.261 1.17188 211.665 1.17188H199.484V25.5361H211.425C214.064 25.5361 216.417 25.0412 218.482 24.0514C220.547 23.0616 222.149 21.6072 223.287 19.6882C224.427 17.793 225.024 15.6205 225.011 13.4088C225.021 11.2132 224.442 9.05513 223.336 7.15885ZM212.03 16.2908C211.467 16.2911 210.917 16.1243 210.448 15.8116C209.98 15.4989 209.615 15.0543 209.399 14.5341C209.184 14.0139 209.127 13.4414 209.237 12.8891C209.347 12.3368 209.618 11.8295 210.016 11.4313C210.414 11.0331 210.922 10.7619 211.474 10.6521C212.026 10.5423 212.599 10.5988 213.119 10.8144C213.639 11.03 214.084 11.3951 214.396 11.8634C214.709 12.3317 214.876 12.8822 214.876 13.4454C214.876 14.2 214.576 14.9238 214.042 15.4574C213.509 15.9911 212.785 16.2908 212.03 16.2908Z" fill="white"/>
<path d="M56.6485 1.17578L48.1875 25.5376H58.9775L60.382 21.4185H68.3005L69.7085 25.5376H80.4844L72.0222 1.17578L56.6485 1.17578ZM64.3359 15.5872C63.7873 15.5874 63.251 15.4249 62.7948 15.1201C62.3386 14.8154 61.983 14.3821 61.7732 13.8752C61.5634 13.3683 61.5086 12.8105 61.616 12.2725C61.7233 11.7345 61.9878 11.2404 62.3761 10.8528C62.7643 10.4652 63.2589 10.2015 63.7971 10.0951C64.3353 9.98869 64.893 10.0444 65.3995 10.2551C65.9061 10.4658 66.3387 10.822 66.6427 11.2788C66.9467 11.7355 67.1083 12.2721 67.1071 12.8207C67.1068 13.5557 66.8148 14.2605 66.2952 14.7803C65.7756 15.3002 65.0709 15.5925 64.3359 15.5931" fill="white"/>
</g>
<defs>
<clipPath id="clip0_527_1941">
<rect width="224.055" height="25.1448" fill="white" transform="translate(0.960938 0.792969)"/>
</clipPath>
</defs>
</svg>
