<svg width="158" height="34" viewBox="0 0 158 34" fill="none" xmlns="http://www.w3.org/2000/svg">
<g clip-path="url(#clip0_529_1961)">
<mask id="mask0_529_1961" style="mask-type:luminance" maskUnits="userSpaceOnUse" x="0" y="0" width="158" height="34">
<path d="M157.97 0.867188H0.421875V33.6897H157.97V0.867188Z" fill="white"/>
</mask>
<g mask="url(#mask0_529_1961)">
<path d="M112.734 14.9426C112.593 13.976 112.333 13.0294 111.963 12.1229C111.135 10.1154 109.567 8.97517 107.356 8.76075C104.673 8.50088 102.088 9.54203 101.383 12.7661C101.348 12.9285 101.277 13.0699 101.168 13.3736C100.981 11.9297 100.817 10.6563 100.65 9.36335H96.0859C96.2714 10.0553 96.5197 10.6887 96.6009 11.3417C96.7553 12.477 96.842 13.6203 96.8609 14.7656C96.8872 19.778 96.879 24.792 96.8723 29.806C96.8689 30.4506 96.8263 31.0943 96.7449 31.7341C96.6616 32.2121 96.5538 32.686 96.4221 33.1536H102.115C100.931 30.1147 101.386 27.0545 101.337 24.0188C101.711 24.3583 101.999 24.7351 102.319 25.0778C104.215 27.0984 107.505 27.5013 109.789 25.9939C111.065 25.1526 111.776 23.9181 112.228 22.5229C113.026 20.0411 113.109 17.4943 112.734 14.9426ZM107.55 21.5922C107.373 22.1609 107.112 22.701 106.775 23.1954C105.881 24.446 104.231 24.6166 103.082 23.5836C102.698 23.2206 102.38 22.7966 102.14 22.3296C101.63 21.3908 101.456 20.3497 101.353 19.3004C101.209 17.8207 101.206 16.3411 101.585 14.8939C101.741 14.2678 101.987 13.6664 102.314 13.1072C102.905 12.1327 103.844 11.6568 105.013 11.7299C106.114 11.8013 106.834 12.4153 107.315 13.3639C107.706 14.187 107.935 15.0754 107.99 15.9821C108.035 16.5506 107.99 17.1191 107.99 17.6973C108.058 19.0211 107.969 20.3351 107.55 21.5922Z" fill="white"/>
<path d="M67.7094 20.0585C67.6681 18.3644 67.7094 16.6671 67.625 14.9746C67.5718 14.1184 67.4337 13.2692 67.2128 12.4392C66.7508 10.5908 65.4939 9.49935 63.6326 9.05917C63.2054 8.96281 62.7722 8.89391 62.336 8.8529C59.7428 8.5914 57.1909 8.96821 54.664 9.3158C54.0016 10.4268 52.4301 14.0959 52.4152 14.567C52.7466 14.4045 53.0776 14.2421 53.4089 14.0878C55.1492 13.2757 56.9195 12.5448 58.8369 12.2345C59.708 12.0933 60.5841 12.0591 61.4434 12.3028C62.3027 12.5464 62.9867 13.0694 63.1972 13.9579C63.3228 14.4987 63.2717 15.0786 63.3047 15.6942L62.778 15.6536C61.2696 15.5269 59.766 15.4911 58.2658 15.7559C56.5849 16.0645 55.0432 16.6573 53.7416 17.7829C50.9563 20.1901 51.612 24.7672 54.7915 26.2582C56.3614 27.0188 58.1687 27.1612 59.8421 26.6562C61.4285 26.1949 62.4105 25.0839 63.0646 23.6464C63.1639 23.4272 63.1855 23.1592 63.4753 22.9594C63.6608 24.1272 63.833 25.222 64.0083 26.3297H68.5043C67.6101 23.5831 67.7773 22.8571 67.7094 20.0585ZM62.3046 22.1391C61.7364 23.1315 60.95 23.8803 59.7561 24.1077C58.5125 24.3416 57.3847 23.6432 57.1281 22.4218C56.8085 20.9031 57.1992 19.568 58.4148 18.5463C59.7777 17.398 61.3955 17.0407 63.2517 17.1544C63.3577 18.9524 63.1788 20.6124 62.3046 22.1391Z" fill="white"/>
<path d="M135.66 9.34147H141.711C141.695 9.46218 141.668 9.58125 141.63 9.69718C141.1 10.93 140.949 12.2375 140.936 13.5515C140.906 16.4166 140.906 19.2823 140.936 22.1486C140.953 23.5568 141.133 24.952 141.764 26.3131H137.204C137.011 24.9163 136.819 23.5178 136.626 22.1177L136.523 22.1096C136.48 22.2834 136.439 22.4588 136.394 22.6326C136.277 23.1919 136.129 23.7445 135.95 24.2877C135.319 25.933 134.041 26.7712 132.287 26.919C131.166 27.0116 130.053 26.9644 128.985 26.5259C128.509 26.3401 128.076 26.0603 127.715 25.7037C127.354 25.3472 127.071 24.9216 126.884 24.4534C126.52 23.5763 126.424 22.6553 126.424 21.7165C126.424 19.376 126.443 17.0355 126.4 14.6966C126.376 13.5514 126.287 12.4084 126.135 11.2727C126.051 10.623 125.804 9.99441 125.617 9.33984H131.598C131.598 9.41944 131.623 9.47304 131.598 9.51041C130.936 11.0892 130.828 12.7589 130.818 14.4302C130.808 16.2937 130.808 18.1568 130.818 20.0192C130.817 20.3527 130.852 20.6853 130.923 21.0116C131.318 22.7853 133.067 23.5162 134.64 22.5514C135.199 22.2222 135.662 21.7571 135.983 21.2011C136.305 20.6451 136.475 20.017 136.477 19.3776C136.523 17.016 136.455 14.6495 136.349 12.2895C136.314 11.4936 136.018 10.7075 135.852 9.91809C135.811 9.73779 135.736 9.5656 135.66 9.34147Z" fill="white"/>
<path d="M18.1094 9.33984H24.1485C24.0046 9.67357 23.8878 10.0179 23.7991 10.3696C23.6219 11.4026 23.3885 12.4389 23.3554 13.4784C23.2841 15.7215 23.3206 17.9678 23.3222 20.2125C23.3261 20.475 23.3583 20.7363 23.4183 20.9921C23.814 22.7788 25.5395 23.5194 27.1242 22.5563C27.6854 22.2308 28.1512 21.7683 28.4758 21.2138C28.8005 20.6593 28.9732 20.0317 28.9772 19.3923C29.0251 17.0079 28.9655 14.617 28.8463 12.2342C28.7968 11.2759 28.4705 10.3306 28.2635 9.34958H34.1984C34.1987 9.43735 34.187 9.52478 34.1636 9.60946C33.6204 10.8634 33.4533 12.192 33.44 13.532C33.4101 16.3972 33.4101 19.2623 33.44 22.1275C33.4565 23.5373 33.627 24.9358 34.2679 26.3034H29.6942C29.5039 24.9212 29.3118 23.5162 29.1196 22.1128L29.0286 22.0982C28.9823 22.2606 28.9341 22.4377 28.8894 22.6099C28.7454 23.1621 28.6462 23.7306 28.449 24.2649C27.9191 25.7138 26.8477 26.5844 25.3027 26.8394C24.0177 27.0521 22.7344 27.0262 21.4941 26.5324C21.0041 26.3468 20.5599 26.0613 20.1908 25.6948C19.8217 25.3283 19.5361 24.8891 19.353 24.4063C19.0394 23.5752 18.8894 22.6934 18.9108 21.8075C18.9108 19.4442 18.9307 17.0793 18.8876 14.7161C18.8664 13.5716 18.7812 12.4291 18.6326 11.2938C18.5465 10.6441 18.3015 10.0139 18.1094 9.33984Z" fill="white"/>
<path d="M81.0489 33.6872L77.9442 29.1393C78.5254 29.2074 78.9659 29.2707 79.4095 29.3016C81.9944 29.526 84.0016 28.5578 85.5265 26.4382C84.879 26.2076 84.2448 26.4139 83.5593 26.2758C83.4848 26.0793 83.3855 25.8438 83.3059 25.6001C81.8366 21.1053 80.371 16.6046 78.9095 12.0978C78.5898 11.1103 78.1576 10.191 77.3281 9.35938H83.9816C83.889 9.7703 83.773 10.1585 83.715 10.5548C83.5947 11.5074 83.6995 12.4744 84.0213 13.381C85.0315 16.4475 86.0476 19.5114 87.07 22.5725C87.0913 22.6391 87.1262 22.7025 87.1975 22.8584C87.2824 22.712 87.3572 22.5601 87.4211 22.4036C88.3185 19.5796 89.2132 16.7534 90.1052 13.9251C90.5704 12.4357 90.6865 10.93 90.1417 9.361H94.9025C94.8796 9.43714 94.8463 9.50984 94.8032 9.57702C94.0695 10.3501 93.682 11.2938 93.3573 12.2814C91.9564 16.551 90.5473 20.8184 89.1299 25.0836C88.546 26.9113 87.6672 28.6355 86.5269 30.1902C85.2915 31.8322 83.7482 33.057 81.6932 33.5735C81.4893 33.6254 81.2759 33.6483 81.0489 33.6872Z" fill="white"/>
<path d="M15.3236 12.341C15.0076 11.625 14.5396 10.9833 13.9508 10.4587C13.362 9.93412 12.666 9.5387 11.909 9.29881C11.1478 9.05142 10.3608 8.88799 9.56261 8.81153C5.78046 8.44608 2.41727 10.2734 1.11736 13.91C0.146478 16.5723 0.2054 19.4915 1.28296 22.114C1.62278 23.016 2.14629 23.8405 2.82158 24.5375C3.49689 25.2345 4.30981 25.7893 5.21081 26.1681C6.89967 26.8851 8.76084 27.1188 10.5794 26.8422C13.3944 26.454 15.3401 24.5195 15.8204 21.6625C15.6399 21.7957 15.5008 21.9143 15.3451 22.0085C14.6463 22.4373 13.9856 22.9749 13.2288 23.2591C11.4222 23.9364 9.58579 23.9803 7.9133 22.8644C6.36996 21.8379 5.79866 20.2657 5.47577 18.4563H15.928C16.1648 16.322 16.231 14.2868 15.3236 12.341ZM5.34329 16.8044C5.2787 15.276 5.44761 13.8662 6.23584 12.596C6.88828 11.5468 7.85369 11.0221 9.12046 11.1667C10.1654 11.2869 10.9155 11.8814 11.4189 12.7568C12.1309 13.9928 12.3412 15.3556 12.3661 16.8044H5.34329Z" fill="white"/>
<path d="M156.174 9.33023C156.459 10.6459 156.741 11.9452 157.062 13.4314C156.719 13.2186 156.514 13.0871 156.305 12.9604C154.468 11.8084 152.34 11.1828 150.16 11.1543C149.747 11.1485 149.335 11.2082 148.941 11.3313C147.817 11.7 147.515 12.9133 148.368 13.7303C148.78 14.1012 149.251 14.4031 149.763 14.6236C150.665 15.0378 151.619 15.3432 152.523 15.7606C153.578 16.2479 154.653 16.7156 155.631 17.328C157.355 18.4081 158.161 19.995 157.95 22.022C157.716 24.1871 156.515 25.6164 154.452 26.3717C153.418 26.7354 152.329 26.9238 151.231 26.9288C149.305 26.9457 147.381 26.8001 145.48 26.4935C145.149 26.4448 144.898 26.3782 144.8 25.9819C144.434 24.4974 144.027 23.0242 143.641 21.5445C143.642 21.4655 143.653 21.387 143.674 21.3106L144.44 21.8531C145.621 22.7026 146.842 23.4854 148.216 24.0101C149.271 24.4129 150.354 24.6923 151.491 24.6078C152.001 24.5794 152.501 24.4657 152.972 24.2716C154.23 23.721 154.401 22.3339 153.314 21.5104C152.885 21.1975 152.414 20.9434 151.915 20.7551C150.768 20.2938 149.577 19.93 148.448 19.4313C147.553 19.0588 146.704 18.5874 145.917 18.0264C144.05 16.6312 143.473 14.7032 143.848 12.4845C144.028 11.419 144.651 10.6085 145.573 10.0173C146.644 9.33186 147.85 9.04273 149.094 8.92742C151.45 8.69189 153.796 8.89492 156.174 9.33023Z" fill="white"/>
<path d="M47.6578 15.3544C47.5694 14.9145 47.4529 14.4805 47.3083 14.055C47.0683 13.4622 46.8314 12.8417 46.4573 12.3285C45.2019 10.6052 42.6633 10.7692 41.5789 12.6046C41.1959 13.2737 40.9654 14.0162 40.9032 14.7811C40.7557 16.2835 40.7509 17.7875 41.16 19.2607C41.3034 19.7905 41.4958 20.3064 41.7345 20.8021C43.339 24.062 47.0864 24.416 49.5172 22.6538C49.9066 22.3728 50.2674 22.0544 50.7161 21.6938C50.7089 21.8573 50.6906 22.02 50.6616 22.1811C49.8917 25.1047 47.6727 26.8313 44.5795 26.9125C43.4822 26.9628 42.3847 26.8203 41.3388 26.4918C39.1496 25.7658 37.6244 24.3283 36.7718 22.2509C35.6862 19.6876 35.5739 16.8274 36.4553 14.1899C37.5103 10.9674 39.8485 9.22944 43.2446 8.84124C45.1886 8.61872 47.088 8.8039 48.8881 9.59976C49.4049 9.85873 49.9079 10.1433 50.3949 10.4525C49.5058 12.1336 48.6496 13.7513 47.7919 15.3691L47.6578 15.3544Z" fill="white"/>
<path d="M70.4688 2.04638L75.9896 0.867188V1.77839C75.9896 8.00897 75.9747 14.2412 76.0029 20.4701C76.0197 21.7812 76.107 23.0906 76.2645 24.3926C76.334 25.0212 76.5857 25.6319 76.7611 26.2491C76.2563 26.3758 72.0368 26.4229 70.7469 26.3044C70.881 25.9178 71.0268 25.5426 71.1394 25.1593C71.4433 24.0265 71.5865 22.8579 71.5649 21.6866C71.5881 16.9363 71.5913 12.1854 71.5748 7.43397C71.5748 5.67981 71.31 3.96299 70.5465 2.34849C70.5127 2.24993 70.4866 2.14892 70.4688 2.04638Z" fill="white"/>
<path d="M114.789 9.18908L120.361 4.76953V9.28654C121.577 9.33851 122.734 9.28654 123.935 9.32225V11.3347H120.479C120.441 11.5142 120.415 11.696 120.401 11.8788C120.401 15.1045 120.401 18.3292 120.401 21.5528C120.392 21.8392 120.426 22.1253 120.5 22.4022C120.86 23.5863 122.244 23.9047 123.098 22.9951C123.321 22.7186 123.519 22.4241 123.691 22.1148C123.893 22.6248 123.97 23.1739 123.918 23.7184C123.865 24.263 123.683 24.7879 123.387 25.2516C123.092 25.7153 122.69 26.105 122.214 26.3897C121.737 26.6744 121.2 26.8462 120.644 26.8916C120.16 26.9453 119.671 26.9371 119.189 26.8673C117.401 26.5814 116.314 25.3649 116.064 23.393C115.995 22.8238 115.961 22.251 115.963 21.6778C115.953 18.7883 115.963 15.8972 115.963 13.0077C115.963 12.7689 115.963 12.5301 115.963 12.2914C115.919 10.8604 115.738 10.3683 114.789 9.18908Z" fill="white"/>
</g>
</g>
<defs>
<clipPath id="clip0_529_1961">
<rect width="157.548" height="33" fill="white" transform="translate(0.421875 0.867188)"/>
</clipPath>
</defs>
</svg>
