<svg width="129" height="100" viewBox="0 0 129 100" fill="none" xmlns="http://www.w3.org/2000/svg">
<path d="M1.89844 36.1005C3.19844 33.7005 5.59839 31.7005 7.59839 29.9005C14.8984 23.7005 22.4984 20.6005 30.7984 27.1005C46.6984 39.6005 48.5984 59.7005 49.6984 78.4005C50.1984 86.8005 47.4984 100.801 35.5984 97.4005C26.5984 94.9005 24.4984 83.3005 23.6984 75.4005C21.6984 56.7005 34.0984 29.3005 54.1984 24.3005C75.0984 19.1005 91.8984 43.8005 93.0984 61.7005C93.5984 68.4005 88.3984 80.7005 79.4984 75.0005C71.6984 70.0005 73.4984 56.7005 74.7984 49.1005C78.3984 29.3005 103.398 0.500541 126.198 12.2005" stroke="#1271FF" stroke-width="3" stroke-miterlimit="1.5" stroke-linecap="round"/>
<path d="M106.898 2.0006C107.098 1.8006 110.798 4.10061 111.098 4.20061C115.198 6.50061 119.298 8.5006 123.198 11.0006C123.398 11.1006 126.698 13.0006 126.698 13.3006C126.698 13.3006 124.698 13.0006 124.598 13.0006C123.098 12.9006 121.598 13.0006 120.098 13.1006C115.298 13.5006 106.698 15.0006 103.898 19.8006" stroke="#1271FF" stroke-width="3" stroke-miterlimit="1.5" stroke-linecap="round"/>
</svg>
